<svg xmlns="http://www.w3.org/2000/svg" height="100%" width="195px" viewBox="0 0 683.49 203.03">
  <defs>
    <style>
      .cls-1 {
        fill: rgb(225, 173, 105);
      }
    </style>
  </defs>
  <g id="Layer_2" data-name="Layer 2">
    <g id="Layer_1-2" data-name="Layer 1">
      <g>
        <g>
          <path class="cls-1" d="M243,68.07H227.62l-2.69,6.25a9.72,9.72,0,0,0-1,3.45,2.25,2.25,0,0,0,.16.87,1.65,1.65,0,0,0,.66.73,4.33,4.33,0,0,0,1.4.55,15.32,15.32,0,0,0,2.37.34v1.08H216V80.26a6.88,6.88,0,0,0,3.22-1.14A8.74,8.74,0,0,0,220.82,77a36.86,36.86,0,0,0,1.74-3.58l13.95-32.64h1l13.8,33a28.26,28.26,0,0,0,1.56,3.29A7.91,7.91,0,0,0,254.38,79a4.33,4.33,0,0,0,1.65,1,9.48,9.48,0,0,0,2.12.32v1.08H242.51V80.26a10.61,10.61,0,0,0,2-.26,4,4,0,0,0,1.24-.53,1.82,1.82,0,0,0,.64-.73,2.09,2.09,0,0,0,.19-.91,5,5,0,0,0-.28-1.65,24.77,24.77,0,0,0-.89-2.41Zm-.81-2.17-6.73-16-6.9,16Z"/>
          <path class="cls-1" d="M269.91,39.76V75.29c0,.86,0,1.55.08,2.09a5.64,5.64,0,0,0,.27,1.29,2,2,0,0,0,.45.74,3,3,0,0,0,.69.47,6.49,6.49,0,0,0,2.84.41v1H261.1v-1a8.38,8.38,0,0,0,2.1-.21,2.16,2.16,0,0,0,1.2-.76,3.1,3.1,0,0,0,.54-1.52,23.88,23.88,0,0,0,.11-2.51V51c0-1.52,0-2.75,0-3.67a11.3,11.3,0,0,0-.16-1.89,2.68,2.68,0,0,0-.67-1.43,1.73,1.73,0,0,0-1.15-.38,5.4,5.4,0,0,0-1.93.47l-.49-1,8-3.27Z"/>
          <path class="cls-1" d="M281.84,64.64a16.83,16.83,0,0,0,.79,5.36,12.8,12.8,0,0,0,2.13,4,9.19,9.19,0,0,0,3.12,2.51,8.33,8.33,0,0,0,3.73.86A7.46,7.46,0,0,0,296.18,76a10.64,10.64,0,0,0,3.26-5l.91.58a14.22,14.22,0,0,1-1.23,3.86,13.12,13.12,0,0,1-2.32,3.4,11.69,11.69,0,0,1-3.31,2.41,9.31,9.31,0,0,1-4.11.92,10.71,10.71,0,0,1-4.52-1,11.14,11.14,0,0,1-3.71-2.78,13.65,13.65,0,0,1-2.53-4.35,16.79,16.79,0,0,1-.93-5.75,18.5,18.5,0,0,1,.95-6.19,13.5,13.5,0,0,1,2.61-4.57,10.93,10.93,0,0,1,3.94-2.84,12.34,12.34,0,0,1,4.87-1,10.58,10.58,0,0,1,4.1.77,9.33,9.33,0,0,1,3.26,2.21,10,10,0,0,1,2.15,3.44,12.24,12.24,0,0,1,.78,4.48Zm0-1.69h12.4a10.48,10.48,0,0,0-.62-3.63,5.71,5.71,0,0,0-2.18-2.57,5.42,5.42,0,0,0-3-.94,5.61,5.61,0,0,0-2.31.49,6.23,6.23,0,0,0-2,1.4,7.73,7.73,0,0,0-1.51,2.24A9.11,9.11,0,0,0,281.84,63Z"/>
          <path class="cls-1" d="M302.83,54.56h12.61v1.08a2.59,2.59,0,0,0-1.7.41,1.36,1.36,0,0,0-.47,1.08,1.69,1.69,0,0,0,.12.6,4.47,4.47,0,0,0,.37.71c.16.28.37.6.62,1s.55.82.88,1.34l1.9,3,2.2-3c1.4-1.93,2.1-3.14,2.1-3.65a1.29,1.29,0,0,0-.5-1,2.45,2.45,0,0,0-1.6-.42V54.56h9.06v1.08a5.85,5.85,0,0,0-1.53.3,5.19,5.19,0,0,0-1.41.82A10.59,10.59,0,0,0,324,58.3c-.55.64-1.19,1.46-1.93,2.45l-3.66,4.89L325,75.23c.84,1.21,1.52,2.15,2.06,2.82a9,9,0,0,0,1.43,1.49,3.05,3.05,0,0,0,1.25.6,9.56,9.56,0,0,0,1.49.15v1H318.62v-1a3.63,3.63,0,0,0,1.86-.44,1.36,1.36,0,0,0,.75-1.23c0-.43-.63-1.56-1.87-3.39l-3.92-5.73-4.3,5.73c-1.33,1.75-2,2.81-2,3.16a1.66,1.66,0,0,0,.66,1.27,3.16,3.16,0,0,0,2,.63v1H303v-1a5.24,5.24,0,0,0,1.12-.29,3.9,3.9,0,0,0,1.12-.75,14.33,14.33,0,0,0,1.37-1.49c.52-.63,1.17-1.48,2-2.53l5.62-7.46-5.09-7.37c-.74-1.07-1.37-1.92-1.9-2.56a8.36,8.36,0,0,0-1.46-1.43,3.71,3.71,0,0,0-1.36-.63,8.35,8.35,0,0,0-1.6-.14Z"/>
        </g>
        <g>
          <path class="cls-1" d="M274.94,99.24v19.91H286a14.5,14.5,0,0,0,3.92-.43,4.61,4.61,0,0,0,3.54-3.62,17.43,17.43,0,0,0,.45-3.27h1.37v17.53h-1.37c-.17-1.24-.35-2.24-.52-3a7.82,7.82,0,0,0-.52-1.69,4.19,4.19,0,0,0-.85-1.17,4.79,4.79,0,0,0-1.34-.88,8,8,0,0,0-2-.55,16.5,16.5,0,0,0-2.71-.19H274.94v16.6a15.86,15.86,0,0,0,.3,4.09,3.35,3.35,0,0,0,.37.63,1.79,1.79,0,0,0,.65.5,4.34,4.34,0,0,0,1.12.31,10.18,10.18,0,0,0,1.72.12h8.54c1.46,0,2.68-.05,3.66-.13a13.92,13.92,0,0,0,2.56-.45,6.77,6.77,0,0,0,1.94-.89,14.1,14.1,0,0,0,1.76-1.47,17.69,17.69,0,0,0,2.34-2.86,38.47,38.47,0,0,0,2.38-4.08h1.48l-4.34,12.62H260.61v-1.37h1.78a7.92,7.92,0,0,0,1.49-.15,6,6,0,0,0,1.46-.48,5.08,5.08,0,0,0,1.25-.84,2.69,2.69,0,0,0,.78-1.17,16.82,16.82,0,0,0,.44-4.86V105.26q0-4.76-1-5.9c-.89-1-2.38-1.49-4.46-1.49h-1.78V96.5h38.81v11h-.89c-.28-1.34-.55-2.44-.82-3.31a10,10,0,0,0-.93-2.15,4.83,4.83,0,0,0-1.19-1.36,8,8,0,0,0-1.6-.91,17,17,0,0,0-5.23-.56Z"/>
          <path class="cls-1" d="M319.69,111.83v34.24a26.58,26.58,0,0,1-1,7.65,15,15,0,0,1-2.77,5.35,11.32,11.32,0,0,1-4.23,3.16,13.7,13.7,0,0,1-5.39,1,11.31,11.31,0,0,1-3-.35,7.73,7.73,0,0,1-2.06-.9,3.8,3.8,0,0,1-1.2-1.2,2.59,2.59,0,0,1-.39-1.3,3.24,3.24,0,0,1,.24-1.25,3,3,0,0,1,.67-1,3.2,3.2,0,0,1,1-.67,2.85,2.85,0,0,1,1.17-.24l.8,0a2.3,2.3,0,0,1,.8.22,6.64,6.64,0,0,1,1.09.69c.44.32,1,.79,1.69,1.41a5.13,5.13,0,0,0,3,1.63,2.89,2.89,0,0,0,1.73-.66,4.14,4.14,0,0,0,1.28-2.34,18.16,18.16,0,0,0,.29-2.55q.12-1.72.12-4.44V126.13c0-2.2,0-3.93-.12-5.18a12.54,12.54,0,0,0-.4-2.8,1.69,1.69,0,0,0-.82-1.15,3.4,3.4,0,0,0-1.34-.23,7.47,7.47,0,0,0-2.52.56l-.52-1.34,10.25-4.16ZM316.5,94a3.81,3.81,0,0,1,2.71,1.11,3.84,3.84,0,0,1,.82,1.23,3.73,3.73,0,0,1,.3,1.48,3.65,3.65,0,0,1-.3,1.47,3.87,3.87,0,0,1-.82,1.21,3.92,3.92,0,0,1-2.71,1.11,3.65,3.65,0,0,1-1.47-.3,3.68,3.68,0,0,1-1.2-.81A3.87,3.87,0,0,1,313,99.3a3.65,3.65,0,0,1-.3-1.47,3.73,3.73,0,0,1,.3-1.48A3.73,3.73,0,0,1,316.5,94Z"/>
          <path class="cls-1" d="M340.75,111.83v27.34c0,1.09,0,2,.11,2.65a8.51,8.51,0,0,0,.33,1.65,2.27,2.27,0,0,0,.58.95,5.48,5.48,0,0,0,.8.58,7.72,7.72,0,0,0,3.34.52v1.33H329.39v-1.33a16.34,16.34,0,0,0,2.06-.11,4.09,4.09,0,0,0,1.3-.38,2.19,2.19,0,0,0,.78-.65,6.17,6.17,0,0,0,.53-.94,11.65,11.65,0,0,0,.53-4.27V126.06c0-2.16,0-3.85-.12-5.09a12.64,12.64,0,0,0-.39-2.79,1.75,1.75,0,0,0-.81-1.17,3.35,3.35,0,0,0-1.36-.24,7.47,7.47,0,0,0-2.52.56l-.52-1.34,10.25-4.16ZM337.67,94a3.57,3.57,0,0,1,1.46.3,3.83,3.83,0,0,1,1.19.8,3.78,3.78,0,0,1,1.1,2.66,3.6,3.6,0,0,1-.3,1.46,4,4,0,0,1-.8,1.21,3.57,3.57,0,0,1-1.19.82,3.73,3.73,0,0,1-1.46.29,3.82,3.82,0,0,1-1.47-.29,3.81,3.81,0,0,1-2-2,3.6,3.6,0,0,1-.3-1.46A3.83,3.83,0,0,1,335,95.14a3.93,3.93,0,0,1,1.21-.8A3.78,3.78,0,0,1,337.67,94Z"/>
          <path class="cls-1" d="M360.25,119.08c2.47-2.48,3.93-3.9,4.38-4.28a13.17,13.17,0,0,1,3.6-2.19,10.16,10.16,0,0,1,3.83-.78,8.54,8.54,0,0,1,5.51,1.84,9.2,9.2,0,0,1,3.06,5.41,26,26,0,0,1,6.47-5.84,11.33,11.33,0,0,1,5.42-1.41,9.61,9.61,0,0,1,3.49.63,7,7,0,0,1,2.84,2.1,10.79,10.79,0,0,1,1.91,3.92,22.16,22.16,0,0,1,.71,6v14.64c0,1.11,0,2.07.09,2.87a4.25,4.25,0,0,0,.58,2,2.72,2.72,0,0,0,1.52,1.13,9.32,9.32,0,0,0,2.93.36v1.33H389.81v-1.33h.7a6.52,6.52,0,0,0,3-.6,3.4,3.4,0,0,0,1.64-2.15,24.72,24.72,0,0,0,.14-3.6V124.53a18,18,0,0,0-.37-4,6.68,6.68,0,0,0-1.09-2.52,3.86,3.86,0,0,0-1.77-1.32,7.06,7.06,0,0,0-2.41-.37,8.39,8.39,0,0,0-2,.22,8.51,8.51,0,0,0-2,.78,17,17,0,0,0-2.24,1.47,33,33,0,0,0-2.66,2.28l.08,18.13c0,1.21,0,2.16.07,2.84a5.68,5.68,0,0,0,.28,1.56,1.69,1.69,0,0,0,.57.8c.25.17.56.37.93.59a4.17,4.17,0,0,0,1.45.43,17.52,17.52,0,0,0,2.23.13v1.33h-17.2v-1.33a14.08,14.08,0,0,0,3.14-.28,2.74,2.74,0,0,0,1.65-1,4,4,0,0,0,.64-2c.07-.82.11-1.86.11-3.12V124.53a15.43,15.43,0,0,0-.43-4,6.93,6.93,0,0,0-1.21-2.56,4.44,4.44,0,0,0-1.83-1.39,6.08,6.08,0,0,0-2.33-.43,7.48,7.48,0,0,0-2.52.46,15,15,0,0,0-2.47,1.15,14.72,14.72,0,0,0-2.14,1.53,12.58,12.58,0,0,0-1.59,1.61v18.24a25.27,25.27,0,0,0,.11,2.76,7,7,0,0,0,.33,1.64,2.08,2.08,0,0,0,.58.91,4.89,4.89,0,0,0,.8.55,9.07,9.07,0,0,0,3.71.49v1.33H349v-1.33a11.65,11.65,0,0,0,2.73-.26,2.81,2.81,0,0,0,1.56-.95,4,4,0,0,0,.7-1.93,25.19,25.19,0,0,0,.17-3.21v-13c0-2.21,0-3.93-.11-5.18a12.94,12.94,0,0,0-.41-2.83,1.69,1.69,0,0,0-.82-1.16,3.34,3.34,0,0,0-1.33-.23,7.13,7.13,0,0,0-2.49.56L348.4,116l10.25-4.16h1.6Z"/>
          <path class="cls-1" d="M419.37,94V127.8L428,120c.79-.71,1.43-1.3,1.9-1.74a12,12,0,0,0,1.05-1.1,2.42,2.42,0,0,0,.45-.68,1.73,1.73,0,0,0,.09-.56,1.64,1.64,0,0,0-.61-1.28,3.31,3.31,0,0,0-2-.62v-1.18h14.78V114a19.61,19.61,0,0,0-2.77.25,10.31,10.31,0,0,0-2.3.65,10.56,10.56,0,0,0-2.16,1.2,28.7,28.7,0,0,0-2.28,1.88l-8.73,8.06,8.73,11a67,67,0,0,0,4.9,5.79c.55.54,1,1,1.43,1.32a6.18,6.18,0,0,0,1.26.8,5.41,5.41,0,0,0,1.49.41,18,18,0,0,0,2.17.11v1.33H428.88v-1.33a3.51,3.51,0,0,0,1.91-.43,1.33,1.33,0,0,0,.5-1.1,5.51,5.51,0,0,0-1.49-2.74L419.37,128V139.2c0,1.14,0,2.06.11,2.75a7.43,7.43,0,0,0,.33,1.65,2.18,2.18,0,0,0,.56.91,3.12,3.12,0,0,0,.78.52,10.49,10.49,0,0,0,3.72.49v1.33H407.56v-1.33a14.55,14.55,0,0,0,2.84-.23,3.2,3.2,0,0,0,1.73-.87,3.51,3.51,0,0,0,.85-1.86,18,18,0,0,0,.22-3.17v-31c0-2,0-3.57-.05-4.78a14.77,14.77,0,0,0-.21-2.43,3.33,3.33,0,0,0-.87-1.84,2.28,2.28,0,0,0-1.54-.5,7.34,7.34,0,0,0-2.34.63l-.63-1.3L417.66,94Z"/>
          <path class="cls-1" d="M466.61,142a49.11,49.11,0,0,1-6.58,4.68,9.84,9.84,0,0,1-4.27.93,8.2,8.2,0,0,1-3.23-.63,7.56,7.56,0,0,1-2.56-1.78,8.31,8.31,0,0,1-1.69-2.77,10,10,0,0,1-.61-3.59,8.79,8.79,0,0,1,.39-2.67,8.3,8.3,0,0,1,1.17-2.32,11.37,11.37,0,0,1,2-2.1,22.61,22.61,0,0,1,2.84-2,81.26,81.26,0,0,1,12.56-5.42V123a18.25,18.25,0,0,0-.43-4.27A7.28,7.28,0,0,0,465,116a4.28,4.28,0,0,0-2-1.44,7.77,7.77,0,0,0-2.68-.43,6.18,6.18,0,0,0-2.13.35,5.54,5.54,0,0,0-1.62.93,4,4,0,0,0-1,1.34,3.68,3.68,0,0,0-.35,1.54l.07,2.15a3.72,3.72,0,0,1-.87,2.64,3,3,0,0,1-2.28.93,2.87,2.87,0,0,1-2.25-1,3.78,3.78,0,0,1-.87-2.63,6.46,6.46,0,0,1,.83-3.09,9,9,0,0,1,2.42-2.75,12.5,12.5,0,0,1,3.9-2,17.15,17.15,0,0,1,5.29-.75,17.42,17.42,0,0,1,6.68,1.15,7.33,7.33,0,0,1,4,4q.66,1.64.66,6.53V135c0,1.64,0,3,.06,3.94s.08,1.67.13,2a2.49,2.49,0,0,0,.61,1.45,1.47,1.47,0,0,0,1,.37,2.05,2.05,0,0,0,.7-.11,2.63,2.63,0,0,0,.78-.44,11.78,11.78,0,0,0,1-.91c.4-.39.91-.89,1.52-1.51V142q-4.19,5.58-7.94,5.57a3.69,3.69,0,0,1-2.9-1.26C467,145.42,466.61,144,466.61,142Zm0-2.41v-13c-1.88.74-3.43,1.37-4.63,1.89a25.42,25.42,0,0,0-2.61,1.26,13,13,0,0,0-4.2,3.44,6.52,6.52,0,0,0-1.26,3.88,7.08,7.08,0,0,0,.42,2.47,6.72,6.72,0,0,0,1.15,2,5.43,5.43,0,0,0,1.69,1.3,4.61,4.61,0,0,0,2,.46Q462,143.25,466.61,139.54Z"/>
          <path class="cls-1" d="M491,111.83v7.65q4.32-7.65,8.77-7.65a4.87,4.87,0,0,1,1.85.34,4.8,4.8,0,0,1,1.51.91,4,4,0,0,1,1,1.32,3.49,3.49,0,0,1,.35,1.56,3.42,3.42,0,0,1-1,2.45,3.09,3.09,0,0,1-2.3,1,3.13,3.13,0,0,1-1.42-.41c-.52-.27-1-.56-1.54-.87l-1.39-.87a2,2,0,0,0-1-.41,1.9,1.9,0,0,0-1.07.42,7.12,7.12,0,0,0-1.23,1.19,19.34,19.34,0,0,0-1.3,1.82c-.44.71-.88,1.48-1.3,2.32v16.31a17.5,17.5,0,0,0,.19,2.74,4.65,4.65,0,0,0,.8,2.08,3.9,3.9,0,0,0,1.8,1.32,8.81,8.81,0,0,0,3.16.47v1.33H479.57v-1.33a12.91,12.91,0,0,0,2.67-.23,2.9,2.9,0,0,0,1.64-.89,3.88,3.88,0,0,0,.81-1.91,19.27,19.27,0,0,0,.22-3.29V126a50.9,50.9,0,0,0-.25-7.06,2.41,2.41,0,0,0-2.49-2.19,7.35,7.35,0,0,0-2.6.56L479.2,116l10.28-4.16Z"/>
          <path class="cls-1" d="M525.69,142a50,50,0,0,1-6.57,4.68,9.87,9.87,0,0,1-4.27.93,8.16,8.16,0,0,1-3.23-.63,7.6,7.6,0,0,1-2.57-1.78,8.29,8.29,0,0,1-1.68-2.77,10,10,0,0,1-.62-3.59,8.79,8.79,0,0,1,.39-2.67,8.3,8.3,0,0,1,1.17-2.32,11.11,11.11,0,0,1,2-2.1,21.89,21.89,0,0,1,2.84-2,81.05,81.05,0,0,1,12.55-5.42V123a18.31,18.31,0,0,0-.42-4.27A7.44,7.44,0,0,0,524,116a4.26,4.26,0,0,0-2-1.44,7.71,7.71,0,0,0-2.67-.43,6.24,6.24,0,0,0-2.14.35,5.36,5.36,0,0,0-1.61.93,3.77,3.77,0,0,0-1,1.34,3.54,3.54,0,0,0-.36,1.54l.08,2.15a3.72,3.72,0,0,1-.87,2.64,3,3,0,0,1-2.29.93,2.9,2.9,0,0,1-2.25-1,3.78,3.78,0,0,1-.87-2.63,6.36,6.36,0,0,1,.84-3.09,9,9,0,0,1,2.41-2.75,12.5,12.5,0,0,1,3.9-2,17.19,17.19,0,0,1,5.29-.75,17.44,17.44,0,0,1,6.69,1.15,7.31,7.31,0,0,1,4,4q.68,1.64.67,6.53V135c0,1.64,0,3,.06,3.94s.08,1.67.13,2a2.43,2.43,0,0,0,.61,1.45,1.43,1.43,0,0,0,1,.37,2.11,2.11,0,0,0,.71-.11,2.9,2.9,0,0,0,.78-.44c.29-.23.64-.53,1-.91l1.52-1.51V142q-4.2,5.58-7.95,5.57a3.67,3.67,0,0,1-2.89-1.26C526.06,145.42,525.69,144,525.69,142Zm0-2.41v-13q-2.82,1.11-4.62,1.89a27,27,0,0,0-2.62,1.26,13.08,13.08,0,0,0-4.2,3.44,6.52,6.52,0,0,0-1.26,3.88,6.86,6.86,0,0,0,.43,2.47,6.51,6.51,0,0,0,1.15,2,5.32,5.32,0,0,0,1.69,1.3,4.55,4.55,0,0,0,2,.46Q521.09,143.25,525.69,139.54Z"/>
          <path class="cls-1" d="M556.81,111.83a15.37,15.37,0,0,1,6.61,1.41A16.41,16.41,0,0,1,568.6,117a17.15,17.15,0,0,1,3.38,5.54,18.31,18.31,0,0,1,1.21,6.64,20.11,20.11,0,0,1-1.24,7,19.35,19.35,0,0,1-3.48,6,16.8,16.8,0,0,1-5.31,4.14,14.83,14.83,0,0,1-6.76,1.54,14.37,14.37,0,0,1-6.55-1.48,16.11,16.11,0,0,1-5.07-4,18,18,0,0,1-3.27-5.66,19.52,19.52,0,0,1-1.15-6.61,19.89,19.89,0,0,1,1.19-6.76,19,19,0,0,1,3.36-5.89,16.77,16.77,0,0,1,5.2-4.14A14.41,14.41,0,0,1,556.81,111.83Zm-1.15,2.42a7.62,7.62,0,0,0-3.14.68,7.16,7.16,0,0,0-2.67,2.23,12.08,12.08,0,0,0-1.88,4,21.49,21.49,0,0,0-.7,5.92A30.62,30.62,0,0,0,548,134a22.57,22.57,0,0,0,2.15,5.81,12.49,12.49,0,0,0,3.38,4,7.26,7.26,0,0,0,4.44,1.49,7.79,7.79,0,0,0,3.29-.69,6.72,6.72,0,0,0,2.62-2.23,11.82,11.82,0,0,0,1.74-4.07,26,26,0,0,0,.63-6.2,32.27,32.27,0,0,0-.7-6.9,20.68,20.68,0,0,0-2.06-5.67,11.47,11.47,0,0,0-3.35-3.84A7.57,7.57,0,0,0,555.66,114.25Z"/>
          <path class="cls-1" d="M588.12,119q6-7.2,11.4-7.21a9.42,9.42,0,0,1,3.49.63,6.83,6.83,0,0,1,2.79,2.12,10.7,10.7,0,0,1,1.85,3.94,23.47,23.47,0,0,1,.67,6.13v14.52a19.37,19.37,0,0,0,.24,3.45,3.81,3.81,0,0,0,.84,1.91,2.63,2.63,0,0,0,1.6.82,15.81,15.81,0,0,0,2.52.17v1.33H596.7v-1.33h.7a9,9,0,0,0,2.62-.3,2.59,2.59,0,0,0,1.43-1,4.24,4.24,0,0,0,.61-1.95,29.28,29.28,0,0,0,.13-3.08V125.24q0-4.63-1.2-6.74a4.32,4.32,0,0,0-4.07-2.1q-4.42,0-8.8,4.83v17.94a13,13,0,0,0,.41,4.27,4.87,4.87,0,0,0,.57,1,2.11,2.11,0,0,0,.86.65,5.32,5.32,0,0,0,1.41.36,19.65,19.65,0,0,0,2.28.11v1.33H576.83v-1.33h.74a6.72,6.72,0,0,0,2.19-.3,2.66,2.66,0,0,0,1.36-1,5,5,0,0,0,.69-2,21.39,21.39,0,0,0,.18-3.06V126.54a51.83,51.83,0,0,0-.3-7.46,3.09,3.09,0,0,0-.83-1.82,2.3,2.3,0,0,0-1.54-.49,7.13,7.13,0,0,0-2.49.56l-.56-1.34,10.25-4.16h1.6Z"/>
          <path class="cls-1" d="M614.3,112.84h15.86v1.37h-.78a3.76,3.76,0,0,0-2.51.72,2.3,2.3,0,0,0-.83,1.81,10.15,10.15,0,0,0,1.22,4l8.28,17.15,7.62-18.79a8,8,0,0,0,.63-3,2.67,2.67,0,0,0-.11-.78,1.24,1.24,0,0,0-.47-.59,2.63,2.63,0,0,0-1-.39,9.77,9.77,0,0,0-1.8-.13v-1.37h11.07v1.37a11,11,0,0,0-1.6.28,2.68,2.68,0,0,0-1.17.67,5.42,5.42,0,0,0-1,1.48c-.33.66-.74,1.56-1.21,2.7l-13.85,33.94a20.63,20.63,0,0,1-2.37,4.32,17.22,17.22,0,0,1-2.9,3.12,12.37,12.37,0,0,1-3.14,1.9,8.37,8.37,0,0,1-3.1.65,5.63,5.63,0,0,1-2-.35,5.45,5.45,0,0,1-1.58-.93,4.19,4.19,0,0,1-1-1.32,3.44,3.44,0,0,1-.37-1.56,3.26,3.26,0,0,1,1-2.51,4,4,0,0,1,2.8-.95,5,5,0,0,1,1.21.23l1.63.46c.56.16,1.06.32,1.51.47a4.25,4.25,0,0,0,.85.22,3.07,3.07,0,0,0,1.17-.26,4.13,4.13,0,0,0,1.26-.89,8.37,8.37,0,0,0,1.32-1.73,19.34,19.34,0,0,0,1.34-2.73l2.41-5.9-12.22-25.67a9.16,9.16,0,0,0-.61-1.09c-.28-.46-.59-.92-.91-1.39s-.64-.91-1-1.3a4.43,4.43,0,0,0-.82-.82,7.55,7.55,0,0,0-2.75-1Z"/>
          <path class="cls-1" d="M660,125.65a21.35,21.35,0,0,0,1,6.79,16,16,0,0,0,2.71,5.11,11.66,11.66,0,0,0,4,3.19,10.66,10.66,0,0,0,4.73,1.1A9.46,9.46,0,0,0,678.2,140q2.46-1.83,4.14-6.29l1.15.74a18.37,18.37,0,0,1-1.56,4.9,16.35,16.35,0,0,1-3,4.31,14.51,14.51,0,0,1-4.19,3.06,11.75,11.75,0,0,1-5.22,1.17,13.53,13.53,0,0,1-5.74-1.24,14.3,14.3,0,0,1-4.71-3.53,17.25,17.25,0,0,1-3.22-5.53,21.21,21.21,0,0,1-1.18-7.3,23.71,23.71,0,0,1,1.2-7.85,17.4,17.4,0,0,1,3.33-5.82,14,14,0,0,1,5-3.6,15.58,15.58,0,0,1,6.19-1.22,13.47,13.47,0,0,1,5.21,1,12,12,0,0,1,4.14,2.8A12.85,12.85,0,0,1,682.5,120a15.56,15.56,0,0,1,1,5.7Zm0-2.16h15.75a13.29,13.29,0,0,0-.78-4.6,7.4,7.4,0,0,0-2.77-3.27,7,7,0,0,0-3.84-1.19,7.28,7.28,0,0,0-2.94.62,8,8,0,0,0-2.56,1.78,9.51,9.51,0,0,0-1.91,2.84A11.4,11.4,0,0,0,660,123.49Z"/>
        </g>
      </g>
      <g>
        <path class="cls-1" d="M101.51,0A101.52,101.52,0,1,0,203,101.52,101.51,101.51,0,0,0,101.51,0Zm0,188.33a86.82,86.82,0,1,1,86.81-86.81A86.81,86.81,0,0,1,101.51,188.33Z"/>
        <g>
          <path class="cls-1" d="M124.78,142.55H112.29l-6.21-16-22-56.38c-.87-2.43-1.73-4.9-2.6-7.41h-.29L55.12,130.06H92l4.86,12.47v0H37.92L76.37,48.13h10Z"/>
          <g>
            <polygon class="cls-1" points="157.75 48.13 157.75 60.62 100.99 60.62 95.91 48.13 157.75 48.13"/>
            <polygon class="cls-1" points="157.75 89.09 157.75 101.58 117.68 101.58 112.59 89.09 157.75 89.09"/>
            <polygon class="cls-1" points="157.75 130.06 157.75 142.55 134.36 142.55 129.28 130.06 157.75 130.06"/>
          </g>
        </g>
      </g>
    </g>
  </g>
</svg>
